<svg xmlns="http://www.w3.org/2000/svg" viewBox="0 0 678.77 189.52"><defs><style>.cls-1{fill:#020202;}.cls-2{fill:#acacac;}.cls-3{fill:#282828;}.cls-4{fill:#515151;}.cls-5{fill:#030303;}.cls-6{fill:#040404;}.cls-7{fill:#57a402;}</style></defs><title>logo-signalfx</title><g id="Layer_2" data-name="Layer 2"><g id="Layer_1-2" data-name="Layer 1"><g id="fzwb3f.tif"><path class="cls-1" d="M59.81,0c1.68,1,3.63.88,5.46,1.26,10,2.06,19,6.14,26.48,13.35.57.55,1.06,1.2,1.69,1.93L79.09,30.46c-.52-.59-1-1.09-1.42-1.61A31.7,31.7,0,0,0,59.49,18.14,32.73,32.73,0,0,0,37.09,21C28,25.77,23.94,35,26.48,44.87a17,17,0,0,0,6.69,9.33c4.07,3,8.8,4.7,13.54,6.33,7.64,2.62,15.35,5.07,22.87,8,8.6,3.34,15.76,8.65,20.59,16.76a29.51,29.51,0,0,1,3.91,11.25c1.15,8.37.68,16.59-2.77,24.44-4.44,10.1-12,17-22.16,21a61.79,61.79,0,0,1-35.07,3.1c-10.79-2-20.53-6.24-28.67-13.76-1.86-1.72-3.52-3.68-5.41-5.68l15.88-13.45c.5.64,1,1.28,1.48,1.89,9.4,11.35,21.26,16.3,36,13.77,7-1.2,12.73-4.4,16.87-10.24a20.42,20.42,0,0,0-3.65-27.44A36.44,36.44,0,0,0,55.27,84c-7.52-2.64-15.13-5-22.64-7.68a47.86,47.86,0,0,1-15.91-9.07A32.26,32.26,0,0,1,5.38,44.2,48.63,48.63,0,0,1,6,31.63C7.91,22.06,13.25,14.81,21,9.23A47.74,47.74,0,0,1,41.41,1.17c1.41-.24,3,0,4.21-1.17h2.47c.33,1.06,1.19.46,1.82.58,1.88,0,3.77.06,5.65,0,.4,0,.78-.38,1.17-.59Z"/><path class="cls-1" d="M678.77,142.55c-7.09,0-14.19-.07-21.27.21-3.59.14-6-.81-8.2-3.85-6.76-9.17-14-18-21-27a8.91,8.91,0,0,1-.7-1.35c-3.44,4.43-6.5,8.39-9.56,12.34-4.6,5.92-9.23,11.81-13.76,17.79a4.51,4.51,0,0,1-4.08,2c-7.7-.12-15.41-.05-23.71-.05,6.34-8.43,12.71-16.23,18.91-24.16s12.54-16,18.91-24.06l-36.12-45c1-.08,1.73-.18,2.47-.18,7.3,0,14.61.11,21.91-.08a5.53,5.53,0,0,1,5.09,2.51Q623.27,72.15,639,92.48a12.41,12.41,0,0,0,1.5,1.39l-.07-.06a20.5,20.5,0,0,0,1.37,2.32q17.48,22.08,35,44.13a12.7,12.7,0,0,0,2,1.67Z"/><path class="cls-2" d="M476.36,0a1.26,1.26,0,0,1,0,.61l-19.1.05,0-.66Z"/><path class="cls-3" d="M56.73,0c-.39.21-.77.58-1.17.59-1.88.05-3.77,0-5.65,0a2.82,2.82,0,0,0,0-.58Z"/><path class="cls-4" d="M49.94,0a2.82,2.82,0,0,1,0,.58c-.63-.12-1.49.48-1.82-.58Z"/><path class="cls-1" d="M222.21,128.66C213,140,201.13,143.88,187.54,143.48A45.64,45.64,0,0,1,161,134.31a43.76,43.76,0,0,1-15.91-23.2c-3.79-12.86-3.25-25.64,2.46-37.85,7.33-15.64,19.82-24.43,37-26.28a43.39,43.39,0,0,1,27.24,5.57A35.72,35.72,0,0,1,217.65,57c1.73,1.57,3.18,3.44,5.1,5.56,0-1.64.05-3,.06-4.29v-8.8h19v3.07q0,42,0,83.91A74.31,74.31,0,0,1,238.9,158,41.24,41.24,0,0,1,217,184a54.78,54.78,0,0,1-22.23,5.38,73,73,0,0,1-27.58-3.76,65.52,65.52,0,0,1-21.82-12.25,10,10,0,0,0-1.46-.84c4.39-5.34,8.41-10.25,12.55-15.3a16.13,16.13,0,0,1,1.37,1.12c12.62,12.56,27.71,16.71,44.84,12.42,8.71-2.18,14.58-8.09,17.46-16.71a39.82,39.82,0,0,0,2.08-11.79C222.29,137.92,222.21,133.51,222.21,128.66Zm-59.83-34c.46,3.24.56,6.58,1.46,9.7C167.5,117,175.62,125,189,126.71c9.69,1.27,18.38-1.27,25.39-8.2,7.58-7.5,10.08-16.88,9.07-27.32-1.31-13.55-10.81-24.52-23.37-27.31-11.46-2.53-21.6.09-29.68,8.91C164.79,78.92,162.82,86.46,162.38,94.63Z"/><path class="cls-1" d="M517.06,81.22v61.27H496.89V3.78h85.92V21.66c-4.34,0-8.71,0-13.09,0H517.2V63.39H578v17.5l-.18.15c-.08.06-.16.17-.24.17Z"/><path class="cls-5" d="M439.43,142.56H422.24c-1.23-3.69-1.36-7.68-1.93-12-.68.75-1.12,1.2-1.53,1.68A35.58,35.58,0,0,1,393.08,145c-7.17.44-14.21-.28-20.79-3.24-12.43-5.58-18.21-15.84-16.68-29.86,1-9.53,6.75-15.56,14.77-19.82a51.06,51.06,0,0,1,17.79-5.52c7.63-1,15.33-1.43,23-2,2.73-.22,5.49-.22,8.2-.32,1.43-12.79-5.95-19.67-16.55-21.08-11.22-1.5-21.51,1.09-31.78,10.47L360.7,61.14a28.48,28.48,0,0,1,5.84-4.87A54.69,54.69,0,0,1,393.22,47c7-.55,13.95-.43,20.76,1.67,13.2,4.08,21.13,12.87,23.54,26.45a70.39,70.39,0,0,1,.91,11.33c.12,13.78,0,27.57.14,41.34C438.62,132.68,439.13,137.56,439.43,142.56ZM419.57,98.79a122.46,122.46,0,0,0-24.86,1.35,32.69,32.69,0,0,0-13.72,5,12.31,12.31,0,0,0-5.7,12.11c.49,5.23,3.48,8.61,8.2,10.53,5.09,2.08,10.35,2.11,15.71,1.31a22.32,22.32,0,0,0,17.32-12.22C419.54,111.21,419.92,105.17,419.57,98.79Z"/><path class="cls-1" d="M343,142.59H323.57v-3.11q0-23.76,0-47.5c0-5.14-.18-10.28-1.71-15.25-3-9.69-10.07-13.89-19.81-13.5-11.16.44-18.51,8.31-21.37,17.47a42.36,42.36,0,0,0-1.75,12.75q0,23,0,46v3.15H259.68c-.45-31,.54-61.95-.78-93.11h18.37c.14,2.17.34,4.39.4,6.6s0,4.48,0,7c.6-.31.95-.37,1.07-.57,5.76-9.09,14.17-14.11,24.67-15.41,8.74-1.09,17.16.16,24.71,5.28a32,32,0,0,1,13,18.42,50.11,50.11,0,0,1,1.86,14q0,27.91,0,55.83Z"/><path d="M457.26.66l19.1-.05c.05.92.13,1.84.13,2.76q0,68.15,0,136.28v2.88h-19.1a16.58,16.58,0,0,1-.2-1.9q0-69.37,0-138.74C457.18,1.48,457.23,1.07,457.26.66Z"/><path class="cls-6" d="M128.72,49.39v93.18H109.46V49.39Z"/><path class="cls-7" d="M640.51,93.87c0-10.17,0-20.33,0-30.49a7.23,7.23,0,0,1,1.76-5c2.09-2.52,4.06-5.14,6-7.77a2.86,2.86,0,0,1,2.56-1.32c8.21.05,16.42,0,24.63,0a7.08,7.08,0,0,1,1.16.27c-2.21,2.77-4.28,5.41-6.38,8Q656.63,74.45,643,91.3a28.92,28.92,0,0,1-2.56,2.51Z"/><path class="cls-6" d="M128.69,38.82H109.46v-19h19.23Z"/></g></g></g></svg>